<?xml version="1.0" encoding="utf-8"?>
<!-- Generator: Adobe Illustrator 22.1.0, SVG Export Plug-In . SVG Version: 6.00 Build 0)  -->
<svg version="1.1" id="Layer_1" xmlns="http://www.w3.org/2000/svg" xmlns:xlink="http://www.w3.org/1999/xlink" x="0px" y="0px"
	 viewBox="0 0 258 123.2" style="enable-background:new 0 0 258 123.2;" xml:space="preserve">
<style type="text/css">
	.st0{fill:#A0A0A0;}
</style>
<g>
	<path class="st0" d="M186.6,80.5c-0.1,0-0.3,0-0.4,0c-0.9,0.1-1.5,0.8-2.2,1.4c-0.2,0.3-0.4,0.6-0.5,0.9c-0.1,0.2-0.1,0.5-0.2,0.7
		c-0.3,1-0.7,1.9-1,2.9c-0.2,0.4-0.4,0.7-0.6,1.1c-0.3,0.2-0.6,0.3-0.9,0.6c-1,0.9-1.5,2.2-1.8,3.5c0,0.2,0.2,0.1,0.2,0.2
		c0,0,0,0,0,0c0,0.1,0.1,0.3,0.2,0.5c0.1,0.1,0.3,0.2,0.4,0.3c0,0.1,0,0.1,0.1,0.2c0.2,0.4,0.5,0.4,0.9,0.4c0.2,0,0.3-0.2,0.4-0.4
		c0.2-0.4,0.3-0.8,0.5-1.1c0.4-0.7,0.9-1.4,1.3-2.1c0.6-0.8,1.2-1.6,1.5-2.6c0.1-0.2,0.2-0.5,0.4-0.7c0.4-0.5,0.6-1,0.5-1.6
		c-0.1-0.8,0.3-1.4,0.3-2.2c0-0.1,0.2-0.2,0.4-0.3c0.1-0.1,0.3-0.1,0.4-0.2c0,0,0.1,0.1,0.2,0.2c0.1,0,0.1,0,0.2,0
		c0-0.5,0.1-1,0.1-1.5C187,80.6,186.7,80.5,186.6,80.5z"/>
	<path class="st0" d="M86.9,86.9c-0.7-0.2-1.4-0.5-2.1-0.7c-0.5,0.1-0.9,0.1-1.4,0.2c-0.1,0-0.3,0.2-0.4,0.3
		c0.2,0.1,0.3,0.2,0.5,0.3c0.1,0.1,0.3,0.1,0.4,0.2c0.9,0.5,1.7,0.9,2.8,0.8c0.2,0,0.4-0.1,0.4-0.2c0-0.3,0-0.6-0.1-0.9
		C87,87,86.9,86.9,86.9,86.9z"/>
	<path class="st0" d="M185.1,87.7c-0.3,0.7-0.6,1.5-0.9,2.2c-0.4,0.7-0.7,1.5-1.1,2.2c-0.8,0.3-1.1,0.9-1.5,1.6
		c-0.4,0.7-0.8,1.5-1.2,2.2c-0.1,0.6-0.1,1.1-0.2,1.7c0,0.5,0,1,0,1.4c0.1,0.5,0.5,0.8,1,0.6c0,0.2,0,0.4,0.1,0.5
		c0.1,0.2,0.3,0.5,0.5,0.5c0.3,0,0.7,0.2,0.9-0.3c0.1-0.3,0.2-0.6,0.2-0.8c-0.1-0.5,0.1-1,0.3-1.4c0.5-1.3,1-2.6,1-4
		c0.1-0.3,0.2-0.7,0.3-1c0.3-0.9,0.7-1.8,1-2.7c0.3-1,0.4-1.9,0.6-2.9c0-0.1,0-0.2,0-0.3C185.4,87,185.3,87.1,185.1,87.7z"/>
	<path class="st0" d="M257.8,5.3c-0.1-0.1-0.3-0.2-0.4-0.2c-0.6-0.1-1.1,0-1.5-0.7c0-0.1-0.2-0.1-0.3-0.1c-0.5,0-1-0.1-1.5-0.1
		c-0.2,0-0.4,0-0.5-0.1c-0.7-0.1-1.3-0.2-2-0.3c-0.2,0-0.4-0.1-0.5-0.1c-0.1,0-0.2-0.1-0.3-0.1c-0.7-0.2-1.6-0.2-2.2-0.6
		c-0.2-0.3-0.5-0.5-0.7-0.8c-0.2-0.1-0.3-0.3-0.5-0.4c-1-1.1-2.3-1.5-3.8-1.5c-0.4,0-0.7,0.2-0.9-0.3c0-0.1-0.2-0.1-0.3-0.1
		c-1.7,0.1-3.3,0.5-4.6,1.9c-0.1,0.1-0.2,0.3-0.3,0.5c-0.1,0.2-0.2,0.4-0.3,0.5c-0.2,0.7-0.8,0.9-1.5,1.1c-0.1,0-0.1,0.1-0.2,0.1
		c-0.8,0.1-1.6,0.2-2.4,0.3c-0.3,0-0.6,0.1-0.9,0.2c-0.5,0.2-0.9,0.5-1.4,0.7c-0.6,0.3-1.2,0.7-1.8,1.1c-0.4,0.2-0.7,0.3-1.1,0.5
		c-0.1,0-0.2,0.1-0.3,0.1c-0.8,0.3-1.6,0.5-2.4,0.2c-0.7-0.2-1.4-0.4-2-0.6c0,0-0.1,0-0.1,0c-0.8,0.2-1.6,0.3-2.4,0.5
		c-0.8,0.1-1.6,0.3-2.4,0.4c-0.8,0.1-1.6,0.3-2.4,0.4c-0.8,0-1.7,0.1-2.5,0.1c-0.4,0-0.8-0.1-1.1-0.2c-1.1,0.1-2.3,0.1-3.4,0.2
		c-0.7,0.1-1.3,0.2-2,0.3c-0.6,0.1-1.2,0.2-1.8,0.4c-1.3,0.4-2.6,1-3.9,1.4c-0.7,0.2-1.4,0.4-2.1,0.6c-0.5,0.1-1,0.3-1.5,0.4
		c-0.5,0.2-1,0.4-1.5,0.5c-0.8,0.2-1.7,0.4-2.5,0.6c-0.3,0-0.5,0.1-0.8,0.1c-0.3,0-0.6,0-0.9,0.1c-1.4,0.1-2.7,0.3-4.1,0.4
		c-0.6,0.1-1.1,0.3-1.5-0.4c-0.2-0.3-0.3,0-0.4,0.1c-0.5,0-1.1,0.6-1,1c-0.5,0-1,0.1-1.5,0.2c-0.1-0.1-0.2-0.2-0.3-0.3
		c-0.5,0.2-1,0.4-1.5,0.6c-0.5,0.1-0.9,0.3-1.3,0.2c-0.8-0.2-1.4,0.1-1.8,0.5c-0.9,0.8-2.1,1.2-2.7,2.4c0,0.1-0.2,0.2-0.3,0.2
		c-0.4,0.3-0.8,0.7-1.3,1c-0.4,0.3-1,0.5-1.4,0.7c-0.9,0.6-1.7,1.4-2.5,2.2c-0.3,0.3-0.7,0.5-0.9,0.9c-0.2,0.4-0.4,0.6-0.7,0.8
		c-0.6,0.4-1.2,0.7-1.8,1.1c-1.3,0.8-2.5,1.7-3.8,2.5c-0.1,0.1-0.2,0.1-0.4,0.2c-0.2,0.1-0.4,0.2-0.6,0.2c-0.1,0.1-0.2,0.1-0.3,0.2
		c0,0-0.1,0.1-0.2,0.1c-0.1,0.1-0.4,0-0.5,0.2c0,0.1-0.2,0.2-0.3,0.2c-0.5,0.3-1.1,0.7-1.6,1c-0.3,0.3-0.6,0.6-0.8,1
		c0,0.1,0,0.1,0,0.2c-0.2,0.1-0.4,0.2-0.5,0.3c-0.3-0.6-0.7-0.7-1.4-0.5c-0.6,0.1-0.8,0.7-1,1.1c-0.3,0.5-0.4,1.1-1.1,1.3
		c-0.1,0-0.2,0.2-0.3,0.3c-0.2,0.2-0.4,0.4-0.7,0.6c-1,0.5-1.6,1.3-1.8,2.4c0,0.1-0.1,0.2-0.1,0.3c-0.2,0.3-0.4,0.8-0.7,0.9
		c-1.3,0.4-2.7,0.7-4,1.1c-1.1,0.1-2.1,0.4-2.6,1.5c-0.1,0.1-0.2,0.3-0.3,0.4c-0.4,0.2-0.8,0.5-1.1,0.7c-0.1,0.1-0.1,0.2-0.2,0.3
		c-0.2,0.1-0.4,0.2-0.6,0.3c-0.1,0-0.3,0.1-0.4,0.1c-0.9,0.2-1.7,0.4-2.6,0.5c-0.2,0-0.5,0-0.7-0.2c-0.4-0.5-0.9-0.7-1.5-0.7
		c-0.6,0.1-1.2,0.1-1.8,0.1c-0.2,0-0.3,0-0.5,0h0c-0.1-0.2-0.2-0.4-0.2-0.6c-0.2-0.5-0.7-0.5-1.1-0.6c-0.2-0.2-0.4-0.2-0.6-0.3
		c-0.1-0.1-0.3-0.3-0.4-0.3c-0.6,0-1.1-0.1-1.7,0c-0.9,0.2-1.7,0.5-2.6,0.8c-0.1,0-0.3,0.1-0.4,0.1c-0.5-0.2-1.1-0.1-1.5,0.2
		c-0.8,0.5-1.8,0.7-2.8,0.8c0-0.3,0-0.5,0-0.8c0-0.5-0.3-0.6-1-0.4c-0.4,0.1-0.8,0.2-1.3,0.3c-0.5,0.4-1,0.4-1.6,0.4c0,0,0,0,0,0
		c-0.4,0.2-0.8,0.3-1.2,0.5c-1,0.6-1,0.6-2-0.1c0,0,0,0-0.1-0.1c-0.6-0.4-1.1-0.3-1.4,0.4c-0.1,0.2-0.3,0.3-0.5,0.3
		c-0.5,0.1-1,0.3-1.2-0.5c-0.1,0.2-0.1,0.3-0.2,0.5c-0.1-0.1-0.2-0.2-0.3-0.3c-0.5,0.2-0.5,0.7-0.7,1c-0.3,0.1-0.6,0.2-0.9,0.4
		c-0.2,0-0.4,0-0.5,0c-1.3,0-2.6,0.5-3.7,1.3c-0.2,0-0.4,0-0.6,0.1c-0.3,0-0.5,0.1-0.6,0.4c-0.2,0.5-0.6,0.6-1.1,0.6
		c-0.8,0.1-1.3-0.5-2-0.8c0,0-0.2,0.1-0.3,0c-0.3-0.2-0.6,0-0.7,0.2c-0.1,0.2-0.1,0.3,0,0.5C101,45,100.5,45,100,45c0,0-0.1,0-0.1,0
		c-0.1-0.8-0.4-0.9-1.3-1c-0.4,0-0.8-0.1-1.1-0.3c-0.7-0.6-1.4-0.6-2.3-0.2c-0.1-0.8-0.8-0.9-1.3-1.3c-0.4-0.3-0.9-0.5-1.4-0.8
		c-0.4-0.2-0.7-0.5-1.1-0.7c-0.6-0.3-1.2-0.6-1.6-1.1c-0.1-0.1-0.4-0.2-0.6-0.3c-0.2-0.1-0.5-0.1-0.8-0.3c-0.3-0.2-0.6-0.4-0.9-0.6
		c-0.1-0.1-0.3-0.2-0.4-0.3c-0.6-0.4-1.1-0.8-0.9-1.6c0.1-0.5,0.2-1,0.3-1.5c0.2-0.6,0.2-1.1-0.2-1.6c-0.3,0-0.6-0.1-0.9-0.1
		c-0.4,0-0.7-0.2-0.7-0.6c0-0.9,0-0.9-0.8-1c-0.8-0.1-1.5-0.1-2.3-0.2c-0.6-0.1-1.2-0.1-1.8-0.2c-0.2,0-0.3,0-0.5,0
		c-0.3,0.1-0.4,0-0.5-0.3c0-0.3-0.1-0.5-0.1-0.8c0,0,0-0.1-0.1-0.1c-0.1,0.1-0.1,0.2-0.1,0.3c-0.1-0.1-0.3-0.2-0.4-0.3
		c-0.1,0.2-0.1,0.3-0.2,0.5c0,0.3-0.1,0.5-0.1,0.8c-0.3-0.1-0.6-0.2-1-0.2c0-0.1,0-0.1,0.1-0.2c0.1-0.3,0.2-0.6,0.4-0.9
		c0-0.1,0.1-0.2,0.1-0.3c0.4-0.5,0.4-1.5,0-2c-0.1-0.1-0.1-0.2-0.2-0.2c-0.9-0.3-1.8-0.7-2.6-1.3c-0.1-0.2-0.2-0.3-0.4-0.5
		c-0.2-0.2-0.3-0.5-0.5-0.7c-0.4-0.5-0.9-0.3-1.4-0.3c-0.6,0-1.1,0-1.7,0.1c-0.1,0-0.3,0.2-0.3,0.3c-0.2,0.4-0.4,0.9-0.6,1.3
		c-0.6,0.2-1.2,0.3-1.8,0.5c-0.7,0.2-1.3,0.4-2,0.5c-0.2,0.1-0.5,0.1-0.6,0.3c-0.1,0.1,0,0.4-0.1,0.5c-0.1,0.1-0.1,0.3-0.1,0.5
		c-0.1,0.3-0.4,0.6-0.2,1c0,0.2-0.1,0.4-0.1,0.6c0,0.2,0,0.5,0,0.7c-0.1,0.2-0.3,0.4-0.4,0.6c0-0.5-0.1-0.9-0.5-1.3c0,0,0-0.2,0-0.3
		c0-0.1,0-0.3,0.1-0.4c0.1-0.6-0.1-1-0.6-0.8c-0.3,0.1-0.5,0.4-0.6,0.7c-0.1,0.1,0.1,0.4,0.2,0.5c0.2,0.1,0.4,0.2,0.5,0.4
		c0.1,0.3,0.2,0.6,0.3,0.9c-0.3,1.1-0.4,2.2-1.4,3c-0.6,0.2-1.2,0.4-1.8,0.7c-0.3,0.2-0.6,0.3-0.9,0.5c-0.3,0-0.5,0.1-0.8,0.1
		c0-0.1,0-0.2,0-0.4c0-0.1-0.4-0.2-0.6-0.2c-0.3,0-0.6,0.1-0.8,0.1c-0.5-0.2-0.9-0.5-1.4-0.7c-0.4-0.2-0.8,0-1,0.4
		c-0.1,0.3-0.3,0.5-0.6,0.5c-0.2,0-0.4,0.1-0.6,0.2c-0.4,0.2-0.9,0.5-1.3,0.8c-0.2,0.2-0.4,0.6-0.8,0.3c-0.1-0.1-0.5,0.1-0.7,0.2
		c-0.1,0.1-0.3,0.2-0.4,0.3c-0.4,0.2-0.8,0.3-1.2,0.6c-0.4,0.4-0.7,0.8-1,1.3c-0.1,0.2-0.4,0.3-0.4,0.5c-0.4,0.1-0.7,0.3-1.1,0.5
		c-0.1-0.3-0.2-0.6-0.2-0.8c0,0-0.1,0.1-0.1,0.1c-0.2,0-0.5,0-0.7,0c-0.1,0-0.2,0.1-0.3,0.1c-0.1,0.1-0.2,0.2-0.3,0.3
		C44.5,40,43.7,40,43,40c0,0-0.1,0-0.1,0c-0.5,0-1.1-0.1-1.6,0.1c-0.6,0.2-1.2,0.2-1.6-0.4c-0.1-0.1-0.2-0.2-0.3-0.2
		c-0.2-0.1-0.5-0.1-0.7-0.1c-0.1,0-0.3,0.1-0.4,0.1c-0.7-0.1-0.7-0.1-0.9,0.4c-0.5-0.1-1.1-0.3-1.6-0.3c-0.8-0.1-1.7,0-2.5,0
		c-1-0.9-2-1.8-3-2.6c-0.5-0.4-0.9-0.6-0.7-1.3c0-0.8,0.1-1.6,0.1-2.5l0,0c0-0.3,0-0.5,0.1-0.8c0-0.2,0-0.4,0.1-0.5
		c0.6-0.4,0.9-0.8,0.8-1.5c0-0.2,0-0.4-0.1-0.6c-0.1-0.2-0.2-0.3-0.4-0.5c-0.6,0.2-1,0-1.4-0.5c-0.4-0.4-0.8-0.8-1.5-0.8
		c-0.6,0-1.2,0-1.8,0c-0.3,0-0.4,0.1-0.6,0.3c-0.2,0.3-0.5,0.7-0.7,1c0,0-0.1,0.1-0.1,0.1c-0.6,0.1-1.2,0.3-1.6,0.7
		c-0.1,0-0.2,0-0.3,0c-0.4-0.1-0.6,0.1-0.7,0.5c-0.4,0.6-0.8,1.3-1.2,1.9c-0.1,0.1-0.3,0.2-0.4,0.2c-0.8,0.1-1,0.6-0.6,1.3
		c0.5,0.8,1,1.5,1.5,2.3c0.1,0.1,0.1,0.2,0.1,0.3c0,1.4,0.3,2.8,0.7,4.2c0.2,0.8,0.6,1.5,0.4,2.4c0,0.2,0,0.3,0,0.4
		c-0.1-0.1-0.2-0.2-0.4-0.2c-0.3-0.2-0.6-0.3-0.9-0.4c-0.1-0.5-0.1-1.1-0.2-1.6c0-0.3-0.1-0.7-0.1-1c0-0.5,0-1,0-1.4
		c0-0.6-0.3-0.9-0.7-0.9c-0.1-0.1-0.1-0.2-0.2-0.3c-0.2,0-0.3,0-0.4,0.1c0,0,0,0,0,0c-0.2-0.7-0.7-0.9-1.3-1
		c-0.2-0.2-0.5-0.4-0.8-0.6c-0.2,0.6-0.4,0-0.7,0c-0.1,0.1-0.2,0.2-0.2,0.3c-0.2,0.5-0.7,0.7-1.2,0.8c-0.4,0.1-0.8,0.2-1.2,0.3
		c-0.3,0.1-0.6,0.2-0.8,0.3c-0.3,0.3-0.4,0.3-0.6-0.1c-0.2-0.3-0.4-0.7-0.6-1.1c0,0.2-0.1,0.4-0.1,0.5c-0.1-0.1-0.2-0.1-0.2-0.2
		c-0.2-0.3-0.3-0.4-0.6,0c-0.2,0.2-0.4,0.4-0.6,0.6c-0.6,0.6-0.8,0.6-1.5,0.1c0,0-0.1,0-0.2-0.1c-0.2-0.1-0.4-0.2-0.5-0.4
		c-0.8-0.3-1.5-0.4-1.9,0.6c-0.6,0.3-1.3,0.6-1.9,0.9c-0.7,0.4-1.5,0.5-1.8,1.3c-0.2,0-0.4,0.1-0.6,0.1c-0.3,0-0.5,0.2-0.7,0.5
		c-0.3,0.5,0,0.9,0.1,1.3c-0.7-0.1-0.9,0.4-1.1,0.9C-0.1,43.6,0,43.8,0.5,44c0.3,0.4,0.5,0.8,0.8,1.1c0.2,0.3,0.2,0.5,0,0.8
		c-0.6,1-0.8,2-0.7,3.2c0.1,0.9,0.1,1.9-0.3,2.8c-0.1,0.2-0.1,0.4-0.1,0.5c-0.1,0.7-0.1,0.8,0.6,1.3c0.1-0.1,0.2-0.1,0.3-0.2
		c0.4,0.2,0.4,0.5,0.3,0.9c-0.2,0.5,0.4,0.6,0.5,1c0.1-0.1,0.2-0.1,0.2-0.2c0.2,0.5,0.4,0.9,0.7,1.4c-0.1,0.1-0.2,0.1-0.3,0.2
		C2,57.2,2,57.2,1.6,56.7c-0.1-0.3-0.4-0.3-0.6-0.2c-0.1,0-0.2,0.2-0.2,0.3c0.1,0.7,0.1,1.4,0.7,1.9c0.1,0.1,0.1,0.1,0.2,0.2
		C1.8,58.9,1.9,59,2,59.1c0.2,0.1,0.4,0.2,0.5,0.4c0.3,0.5,0.8,0.8,1.3,0.9c1,0.4,2,0.6,3,0.9c0.6,0.2,0.9,0.1,1-0.3
		c0.4,0.3,0.9,0.5,1.4,0.7c0,0.1-0.1,0.2,0,0.4c0.1,0.2,0.2,0.5,0.3,0.7c0.1,0.1,0.2,0.2,0.3,0.3c0.1,0.1,0.1,0.2,0.2,0.3
		c0.4,0.1,0.9,0.1,1.3,0.2c0.1,0.1,0.3,0.2,0.4,0.3c0.3,0.4,0.3,1,0.9,1.3c0.1-0.1,0.2-0.2,0.3-0.2c0.4,0.2,0.5,0.2,0.6-0.3
		c0-0.2,0-0.4,0-0.6c-0.1-0.4,0.1-0.6,0.5-0.5c0.7,0.1,1.4,0.3,2.1,0.4c0.5,0,1-0.1,1.5-0.1c0.2,0.1,0.4,0.1,0.6,0.2
		c0.2,0,0.4,0,0.7,0c1,0,1.8,0.5,2.8,0.7c0.3,0.1,0.6,0.4,1,0.1c0.9,0.6,1.9,0.9,3,1c0,0,0,0.1,0,0.1c0.1,0.1,0.1,0.3,0.2,0.4
		c0.4,0.5,0.4-0.2,0.8-0.2c0.1,0.2,0.4,0.4,0.7,0.1c0.1,0,0.2,0,0.3,0c0.6,0.2,1.1,0.4,1.7,0.6c0.1,0.1,0.2,0.2,0.3,0.4
		c0.2,0.3,0.3,0.6,0.5,0.9c0.2-0.2,0.3-0.2,0.5-0.3c0.3,0.3,0.5,0.3,0.7-0.2c0.1-0.2,0.2-0.5,0.3-0.5c0.8-0.3,1.7-0.6,2.6-0.5
		c0.2,0,0.5,0,0.8,0c0.3,0.1,0.5,0,0.7,0.4c0,0.1,0.2,0.1,0.3,0.1c0.3,0.1,0.7,0.2,1,0.3c0.3,0,0.4,0.3,0.7,0.3l0,0l0,0
		c0.6,0,1.1,0,1.7-0.1c0.4-0.1,0.7-0.1,1.1,0c0.2,0.1,0.3,0.1,0.5,0.1c0.8,0.1,1.5,0.1,2.3,0.2c0.3,0,0.7,0,1,0c0.1,0,0.1,0,0.2,0
		c0.6-0.1,1.2-0.2,1.8-0.3c0.5,0.9,1.2,1.7,2,2.2c0.1,0.2,0.1,0.4,0.2,0.6c0.2,0.4,0.5,0.6,1,0.6c0.5,0,1.1,0.1,1.7,0.2
		c0-0.1,0-0.2,0.1-0.4c0.5,0,0.9,0,1.4,0c-0.1,0.3-0.1,0.6-0.2,1c0,0.4,0.1,0.9,0.5,1.1c1.3,0.7,2.6,0.3,3.8-0.3
		c0.6-0.3,1.2-0.5,1.8-0.5c0.6,0,1.1,0.2,1.7,0.4c0.6,0.4,1.2,0.8,1.9,1.1c0.4,0.2,0.9,0.1,1.4,0.1c0.1,0,0.1-0.5,0.2-0.7
		c0-0.1,0.1-0.2,0.2-0.4c0,0,0.1-0.1,0.1-0.1c0.3,0.2,0.4,0.1,0.6-0.1c0.6-0.9,1.4-1.6,2.3-2.3c0.2-0.2,0.4-0.4,0.6-0.5
		c1-0.2,1.9-0.4,2.9,0c0.5,0.2,1.1,0.4,1.7,0.4c0.5,0,0.8,0.1,1,0.6c0.4,0.4,0.7,0.8,1.1,1.3c0.1,0.2,0.1,0.3,0.2,0.5
		c0.2,0.4,0.6,0.6,0.9,0.4c0.1,0.4,0.3,0.7,0.5,1.1c0.2,0.3,0.4,0.5,0.6,0.8c-0.1,0.3-0.1,0.5-0.2,0.8c-0.2,0.6-0.5,1.3-0.6,1.9
		c-0.1,0.4,0.4,0.8,0.8,0.7c0.2,0,0.5-0.1,0.7,0c0.1,0,0.3,0.2,0.3,0.3c0.2,0.4,0.3,0.9,0.6,1.3c0.1,0.2,0.5,0.4,0.7,0.4
		c0.4-0.1,0.7-0.3,1.1-0.4c0,0,0-0.1,0-0.1c0.1,0.1,0.3,0.3,0.4,0.4c0.5,0.8,0.9,1.5,1.3,2.3c0.2,0.3,0.3,0.5,0.7,0.5
		c0.9,0,1.1,0.2,1.3,1c0,0.1,0.1,0.2,0.1,0.3c0.2,0.8,0.5,1,1.3,1c0.2,0,0.4,0,0.5-0.1c0.7-0.1,1.3,0,1.6,0.7
		c0.1,0.1,0.1,0.2,0.2,0.3c1,0.9,2.1,1.8,3.1,2.8c0.5,0.5,1,0.5,1.6,0.4c0.4-0.1,0.9,0,1.4,0c0.2,0,0.4,0.1,0.7,0.1
		c0.4,0.1,0.5-0.1,0.5-0.5c0-0.3,0-0.5,0-0.8c0,0,0,0,0,0c0.5,0.3,1,0.5,1.5,0.7c-0.1,0.2-0.1,0.5-0.2,0.7c-0.3,0.9,0,1.7,0.7,2.3
		c0.2,0.1,0.2,0.4,0.3,0.6c0,0.1,0,0.3,0.1,0.4c0.4,0.3,0.8,0.6,1.3,0.9c0.8,0.6,1.7,1.2,2.3,2c0.5,0.6,1,1.2,1.4,1.8
		c0.1,0.3,0.3,0.7,0.4,0.9c0.2,0.3,0.4,0.4,0.7,0.1c0.1,0,0.2,0,0.2,0c0.1,0,0.3,0.1,0.4,0c0.2-0.2,0.4-0.1,0.6,0
		c0.4,0.3,0.8,0.5,1.2,0.8c0.6,0.5,1.2,0.9,1.9,1.2c0.1,0.3,0.2,0.6,0.3,0.9c0.2,0.6,0.9,1.3,1.5,1.4c0.8,1.8,1.6,3.5,2.5,5.1
		c0.3,0.5,0.6,0.9,1,1.2c0.1,0.2,0.2,0.5,0.2,0.7c0.2,0.4,0.4,0.9,0.6,1.3c0.1,0.2,0.1,0.3-0.1,0.5c-0.4,0.3-0.4,0.8-0.3,1.2
		c0.4,1.1,0.9,2.1,1.2,3.2c0.2,0.8,0.8,1.3,1.5,1.7c0.8,0.4,1.6,0.8,2.3,1.2c0.1,0.1,0.3,0.1,0.4,0.1c0.4,0.1,0.7-0.1,0.9-0.3
		c0.3,0.1,0.5,0.3,0.8,0.4c-0.1,0-0.1,0-0.1,0.1c-0.1,0.1-0.3,0.3-0.2,0.4c0,0.2,0.2,0.3,0.4,0.4c0.1,0.1,0.3,0,0.5,0.1
		c0.2,0.1,0.3,0.3,0.5,0.4c0.2,0.2,0.5,0.3,0.7,0.5c0.7,0.4,1.4,0.7,2.1,1.1c0.6,0.3,1.1,0.6,1.7,0.9c0.1,0,0.2,0,0.3,0
		c0.8,0.1,1.7,0.1,2.5,0.2c0.8,0.1,1.5,0.5,2.4,0.3c0.5-0.2,1-0.2,1.4-0.5c1-0.8,2-1.3,3.1-1.8c0.7-0.2,1.5-0.5,2.2-0.7
		c0.4-0.2,0.8-0.4,1.2-0.6c0.4-0.1,0.8-0.2,1.2-0.3c0.3-0.1,0.6-0.1,0.9-0.2c0.8,0,0.9-0.1,0.9-0.7c0-0.1,0-0.1-0.1-0.2
		c0.3-0.1,0.7-0.3,1-0.4c0.3,0.4,0.8,0.4,1.3,0.2c0.2,0,0.3-0.1,0.5-0.1c1.1,0.1,1.8-0.2,2.1-1.1c0.2-0.4,0.4-0.4,0.8-0.4
		c0.5,0,1.1,0.1,1.5-0.4c0.1-0.1,0.2-0.1,0.3-0.1c1.3-0.1,2.5-0.7,3.7-1.3c0.4-0.2,0.9-0.3,1-0.9c0-0.1,0.2-0.3,0.3-0.4
		c0.5-0.4,1-0.8,1.6-1.1c0.2-0.1,0.5-0.1,0.8-0.1c0.3-0.1,0.6,0.3,0.8-0.2c0.4-1,0.9-1.9,1.4-2.9c0.2-0.5,0.5-1,0.8-1.4
		c0.3-0.4,0.8-0.7,1.2-0.9c0.6-0.4,0.8-0.8,0.4-1.4c-0.3-0.3-0.6-0.7-0.9-0.9c-0.1-0.1-0.2-0.1-0.3-0.2c0.2-0.4,0.4-0.7,0.6-1.1
		c0,0.1,0.1,0.1,0.1,0.2c0.6,0.7,1.3,1.4,1.9,2.1c0.1,0.1,0.2,0.4,0.2,0.6c0,0.4,0.3,0.9,0.7,0.9c0.9,0,1.8-0.1,2.5-0.6
		c0.2,0.5,0.7,0.6,1.2,0.5c0.3-0.1,0.7,0,1-0.1c0.8-0.3,1.8-0.1,2.6-0.7c0.2-0.1,0.3-0.3,0.5-0.4c0.5-0.2,0.7-0.5,0.8-1
		c0.1-0.3,0.2-0.6,0.6-0.6c0.1,0,0.2-0.2,0.2-0.3c0.1-0.4,0.1-0.7,0.1-1.1c0-0.2,0.1-0.4,0.1-0.5c0-0.8-0.2-1.7,0.2-2.5
		c0.1-0.2-0.1-0.5-0.2-0.7c0-0.1-0.2-0.1-0.3-0.1c-0.3,0.1-0.6,0.2-0.9,0.4c-0.1,0-0.2,0-0.2-0.1c-0.6-0.5-1.2-1-1.8-1.6
		c-0.3-0.3-0.7-0.6-1.2-0.5c-0.2,0-0.4,0.1-0.6,0.1c-1,0-2,0-3,0c-0.1,0-0.2,0-0.2,0c-0.4,0.1-0.8,0.3-1.1,0.4
		c0.3-0.6,0.6-1.2,0.9-1.8c0,0,0.1,0,0.1,0.1c0.3,0.3,0.6,0.4,1,0.3c0.8-0.2,1.5-0.3,2.3-0.5c0.5,0.7,1.1,0.6,1.8,0.5
		c0.4-0.6,0.5-1.2,0.2-1.8c-0.2-0.5,0-0.9,0-1.5c0.1,0.1,0.1,0.2,0.2,0.3c0.1,0.4,0,0.9,0.4,1.1c0.2,0.4,0.1,0.9-0.2,1.2
		c-0.1,0.1-0.1,0.2-0.1,0.3c0.1,0.2,0.1,0.4,0.3,0.5c0.4,0.2,1-0.1,1.2-0.5c0.2-0.4,0.2-0.9,0.4-1.3c0.1-0.4,0-0.7,0.1-1.1
		c0,0,0,0,0,0c0-0.2,0.1-0.3,0-0.5c0-0.2,0.1-0.3,0-0.5c0.3,0,0.7,0,1,0c0.1,0,0-0.2,0.1-0.2c0.1,0,0.2,0,0.3,0c0,0,0.1-0.1,0.1-0.1
		c-0.1-0.1-0.1-0.3-0.2-0.4c0-0.2,0.3-0.2,0.2-0.4c-0.2-0.3-0.3-0.6-0.5-0.9c-0.1-0.3-0.1-0.5,0.1-0.6c0.3-0.3,0.6-0.5,0.9-0.8
		c0.2-0.2,0.4-0.5,0.7-0.7c0.2-0.2,0.3-0.3,0.6-0.1c0.1,0,0.3,0,0.4-0.1c0.3-0.5,0.6-1,0.9-1.5c0.1-0.1,0.2-0.2,0.3-0.2
		c0.6,0.2,0.8-0.4,1.2-0.7c0.1-0.1,0.2-0.2,0.3-0.3c0.6-0.6,1.3-1.2,1.4-2.2c0.9-0.9,1.8-1.8,2.8-2.6c0.3-0.3,0.5-0.7,0.6-1.1
		c0.2,0,0.4-0.1,0.6-0.1c0.9-0.3,1.7-0.7,2.5-1.2c0.1,0,0.1,0.1,0.2,0c0.3-0.1,0.7-0.1,0.9-0.5c0-0.1,0.2-0.2,0.3-0.2
		c0.6-0.1,1.2-0.3,1.8-0.4c0.4-0.1,0.8,0,1-0.5c0-0.1,0.2-0.2,0.3-0.2c0.5-0.1,0.7-0.4,0.8-0.8c0.1,0,0.2-0.1,0.3-0.1
		c0.2,0,0.4,0,0.7,0c0.9-0.1,1.6-0.7,2.3-1.2c0.3-0.2,0.7-0.4,1-0.6c0.7-0.4,1.7-0.5,2.4-1c0.5-0.3,0.7-0.6,0.5-1.2
		c-0.1-0.2-0.2-0.4-0.2-0.6c-0.2-0.3-0.2-0.5,0.1-0.7c0.2-0.1,0.5-0.3,0.7-0.4c0.6-0.6,1.3-1.2,2.2-1.5c0.8-0.3,1.6-0.7,1.5-1.8
		c0-0.1,0-0.2,0-0.2c0.5,0,1,0,1.4,0c0.1,0,0.3,0,0.4-0.1c0.5-0.4,1-0.9,1.4-1.4c0.6-0.7,1-1.5,2-1.6c0.1,0,0.1-0.1,0.2-0.2
		c0,0,0.1-0.1,0.1-0.1c0.7-0.5,1.4-0.9,2.1-1.4c0.6-0.4,1.1-0.9,1.5-1.4c0.4-0.6,0.6-1.3,0.9-1.9c0.4-0.3,0.7-0.6,0.6-1.2
		c0-0.3,0.2-0.7,0.3-1c0.1-0.3,0.2-0.6,0.3-0.8c0.1-0.7,0.3-1.4,0.8-1.9c0.2-0.2,0.2-0.6,0.3-1c0-0.1,0.1-0.2,0.1-0.3
		c1.1-1.7,2.3-3.3,3.5-4.9c0.3-0.2,0.7-0.3,1.2-0.3c0.1,0,0.2,0,0.3-0.1c0.2-0.4,0.1-0.9-0.1-1.2c0.1-0.1,0.1-0.1,0.2-0.2
		c0.1,0.1,0.2,0.1,0.2,0.2c0.5,0.5,1,0.6,1.4,0c0.6-0.8,1.4-1.3,2.3-1.7c0.6-0.2,1.2-0.6,1.5-1.2c0.2-0.5,0.5-0.8,1-1
		c0.3-0.1,0.6-0.2,0.9-0.3c0.6-0.2,1.2-0.4,1.7-0.7c0.3-0.2,0.6-0.3,0.8-0.5c0.7-0.1,1.4-0.3,2.1-0.7c0.8-0.5,1.4-1.1,1.9-1.8
		c0.2-0.1,0.4-0.2,0.5-0.4c0.2-0.3,0.3-0.6,0.4-0.9c0.2-0.4,0.3-0.9,0.6-1.3c0.7-1,1.4-1.9,2.1-2.8c0.1-0.2,0.2-0.3,0.3-0.5
		c0.3-0.5,0.5-1,0.8-1.4c0.8-0.7,1-1.6,0.9-2.5c0-0.5-0.1-1.1,0-1.6c0.3-0.8,0.7-1.5,1.1-2.2c0.8-1.5,1.6-3,2.6-4.4
		c1.2-1.8,2.2-3.8,3.9-5.1c0.5-0.4,1-0.8,1.5-1.2c0.3-0.2,0.5-0.5,0.6-0.8c0-0.2,0.2-0.4,0.4-0.6c0.5-0.4,1.1-0.8,1.7-1.2
		c0.1-0.1,0.2-0.1,0.4-0.2c0.2,0,0.4,0.1,0.5,0c0.6-0.4,1.1-0.7,1.7-1.1c0.6-0.5,1.2-1,1.8-1.4c0.4-0.3,1-0.4,1.5-0.6
		C258,6.5,258.2,5.9,257.8,5.3z M5.9,45.7c0-0.1,0-0.1,0-0.2c0.2-0.2,0.5-0.3,0.7-0.5C6.3,45.2,6.1,45.4,5.9,45.7z M7.3,44.3
		C7.4,44.1,7.5,44,7.6,44C7.5,44.1,7.4,44.2,7.3,44.3z M133.9,41c0.1,0.1,0.3,0.3,0.4,0.3C134.1,41.2,134,41.1,133.9,41z
		 M168.9,91.4c0,0.7-0.5,0.7-0.9,0.8c-0.5,0.1-0.9,0.2-1.3,0.5c-0.4,0.3-0.9,0.6-1.4,0.9c-0.1,0.1-0.3,0.1-0.3,0.1c0,0,0,0,0,0
		c0.3-0.7,0.7-1.4,1-2.1c0.3,0,0.5-0.1,0.8-0.2c0.4-0.1,0.8-0.3,1.3-0.4c0.4-0.1,0.7-0.1,0.9-0.5c0-0.1,0.2-0.1,0.4-0.1
		C169.2,90.8,168.9,91.1,168.9,91.4z"/>
	<path class="st0" d="M173.1,94.9c-0.3,0.4-0.6,0.8-0.8,1.3c-0.7-0.1-0.9,0-1,0.6c-0.1,0.3-0.2,0.6-0.3,0.9c0,0.2,0.1,0.5,0.2,0.5
		c0.5,0,1-0.1,1.6-0.2c0.1,0,0.2-0.2,0.2-0.3c0.1-0.4,0.1-0.7,0.1-1.1c0.2-0.6,0.4-1.1,0.2-1.8C173.3,94.8,173.2,94.8,173.1,94.9z"
		/>
	<path class="st0" d="M169.1,109C169.1,109,169.1,109,169.1,109c-0.1-0.2-0.2-0.4-0.3-0.5c-0.3-0.5-0.7-0.6-1.1-0.2l0,0
		c-0.2,0-0.4,0-0.6,0.1c-0.6,0.3-1.1,0.6-1.7,0.9c-1,0.2-2.1,0.3-3.1,0.5c-0.2-0.4-0.6-0.3-1-0.3c-0.7-0.1-1.3,0.2-1.6,0.8
		c-0.7,0.4-0.7,0.5-0.5,1.3c-0.1,0.5-0.2,0.9-0.3,1.4c-0.1,0.4-0.2,0.8-0.4,1.2c-0.2,0.5-0.5,1-0.7,1.6c-0.1,0.3-0.3,0.7,0,1.1
		c0.3,0.3,0.8,0.4,0.8,0.9c0,0,0,0,0,0c0.5,0.3,1,0.1,1.4,0c0.4-0.2,0.8-0.6,1.2-0.9c0.2-0.2,0.4-0.4,0.6-0.6
		c0.9-0.8,2.1-1.3,2.8-2.5c0.3-0.4,0.6-0.5,1-0.5c0.2,0,0.4,0,0.6-0.1c0.5-0.2,1.1-0.3,1.6-0.5c0.3-0.1,0.7-0.3,1-0.2
		c0.4,0,0.5-0.1,0.5-0.5c-0.1-0.7-0.1-1.4-0.2-2.1C169.2,109.7,169.2,109.4,169.1,109z"/>
	<path class="st0" d="M26,24.8c0.5,0.1,1,0.2,1.4,0.4c0.6,0.3,1.2,0.7,1.9,0.8c0.6,0.1,1.4,0,1.5,0.9c0,0,0,0,0.1,0.1
		c0.4,0.4,0.8,0.9,1.1,1.3c0.1,0.2,0.2,0.4,0.2,0.6c0.1,0.3,0.1,0.6,0.2,0.8c0.3,0.3,0.4,0.7,0.4,1.1c-0.1,1.2,0.1,2.3,0.9,3.3
		c0.1,0.2,0.3,0.3,0.5,0.4c0.5,0.2,1,0.4,1.6,0.5c0.5,0.2,0.8,0.5,0.9,1c0,0.2,0.2,0.4,0.4,0.5c0.2,0.1,0.5,0.2,0.7,0.2
		c0.3,0,0.7-0.1,0.8-0.3c0.1-0.3,0-0.7-0.1-1c0-0.2-0.1-0.4-0.2-0.6c0.2,0,0.4-0.1,0.6,0c0.4,0.1,0.8,0.3,1.2,0.4
		c0.4,0.1,0.6,0.3,0.5,0.8c0,0.1,0,0.2,0,0.4c0.1,0.4,0.5,0.4,0.7,0.6c0.3,0,0.5,0,0.7,0c0.1,0,0.3,0,0.4,0c0.2-0.1,0.5-0.1,0.6-0.2
		c0.7-0.4,1.1-1.1,1.9-1.1c0.2,0,0.4-0.1,0.6-0.1c0.4-0.1,0.9-0.2,1.3-0.3c0.9-0.3,1.9-0.3,2.6-1.1c0-0.1,0.1-0.1,0.2-0.1
		c0.4-0.3,0.8-0.7,1.1-1c0.2,0,0.4,0,0.6,0c1,0.1,1.9,0.1,2.9,0.2c0.5,0,1,0.1,1.6,0.2c0.4,0,0.6-0.1,0.6-0.5c0-0.3,0.1-0.6,0.3-0.8
		c0.5-0.6,1-1,1.9-0.8c0.5,0.1,0.7-0.2,0.9-0.6c0.1-0.2,0.1-0.4,0.1-0.6c0.2-0.8,0.4-1.5,1-2.1c0.3-0.3,0.5-0.7,0.7-1
		c0.1,0,0.2-0.1,0.3-0.1c0.7,0.2,1.3,0.1,1.7-0.5c0.1-0.1,0.2-0.2,0.4-0.3c0.5-0.3,0.9-0.7,1.4-1c0.3-0.2,0.6-0.3,0.9-0.3
		c0.3,0,0.4-0.1,0.4-0.4c0.1-0.6-0.1-1.2-0.4-1.7c-0.3-0.7-0.5-1.4-0.7-2.1c0-0.1-0.1-0.2-0.2-0.4l0,0c-0.1-0.8,0.1-1.8-0.6-2.5
		c-0.3,0.4-0.5,0.2-0.8,0.1c-0.4-0.6-0.9-1.1-1.5-1.3c-0.1-0.1-0.3-0.2-0.4-0.2c-0.6-0.3-1.1-0.6-1.7-0.9c-0.5-0.9-1.1-0.9-2-0.7
		c-0.2,0-0.5,0-0.7,0c-0.4-0.1-0.7-0.3-1.1-0.5c-0.1-0.1-0.3-0.1-0.4-0.3c-0.2-0.3-0.5-0.4-0.8-0.3c-0.4,0.1-0.7,0.1-1.1,0.2
		c-0.3,0.1-0.5,0.1-0.6-0.3c-0.3-1-0.5-1.1-1.5-0.8c-0.1,0.2-0.2,0.3-0.3,0.5c0.1,0.1-0.1,0.3-0.1,0.5c0.1,0.4,0,0.6-0.3,0.8
		c-0.3,0.3-0.7,0.6-0.9,0.9c-0.6,0.7-1.3,1-2.1,0.6c-1.3-0.7-3.5-0.2-4.2,1.4c-0.5,0.5-1.1,0.2-1.6,0c-1.3-0.6-2.6-0.7-3.8,0.2
		c-0.1,0.1-0.2,0.1-0.4,0.2c-0.4,0.2-0.8,0.5-1.2,0.7c-0.9,0.7-1.1,0.7-1.9,0.2c-0.1-0.1-0.2-0.1-0.4-0.2c-0.1-0.1-0.2-0.2-0.3-0.3
		c-0.7-0.7-1.5-0.9-2.4-0.6c-0.7,0.2-1.1,0.6-1.6,1c-1.2,0.9-2,2.1-2.9,3.3c-0.4,0.6-0.6,1.2-0.1,1.9c0.1,0.1,0.1,0.2,0,0.3
		c0,0.1-0.2,0.1-0.3,0.1c-0.3,0-0.7,0-1-0.1c-0.5,0.1-1.1,0.1-1.6,0.2c-0.1,0-0.2,0.3-0.3,0.4c0.2,0.1,0.3,0.2,0.5,0.3
		C25.5,24.7,25.7,24.7,26,24.8z"/>
</g>
</svg>
